<?xml version="1.0" encoding="UTF-8"?>
<svg xmlns="http://www.w3.org/2000/svg" xmlns:xlink="http://www.w3.org/1999/xlink" viewBox="0 0 255.12 28.35">
  <defs>
    <style>
      .cls-1 {
        fill: #231f20;
      }

      .cls-2 {
        fill: #fff;
      }

      .cls-3 {
        fill: #ed1c24;
      }

      .cls-4 {
        fill: none;
        stroke: #646a6f;
        stroke-miterlimit: 10;
        stroke-width: .25px;
      }

      .cls-5 {
        isolation: isolate;
      }

      .cls-6 {
        mix-blend-mode: multiply;
      }

      .cls-7 {
        fill: #ffde00;
      }

      .cls-8 {
        fill: #001b50;
      }

      .cls-9 {
        fill: #003878;
      }

      .cls-10 {
        fill: #004892;
      }

      .cls-11 {
        fill: url(#linear-gradient);
        fill-rule: evenodd;
      }
    </style>
    <linearGradient id="linear-gradient" x1="27.78" y1="73.96" x2="30.25" y2="70.77" gradientTransform="translate(0 -49.67) rotate(-4.82) skewX(-4.79)" gradientUnits="userSpaceOnUse">
      <stop offset="0" stop-color="#ed1c24"/>
      <stop offset="1" stop-color="#9e0b0f"/>
    </linearGradient>
  </defs>
  <g class="cls-5">
    <g id="brands">
      <g>
        <g>
          <g>
            <path class="cls-3" d="M108.23,12.11c-.36.36-.86.43-1.13.17-.27-.27-.19-.77.17-1.13.36-.36.86-.43,1.13-.17.27.27.19.77-.17,1.13Z"/>
            <path class="cls-3" d="M113.24,12.11c-.36.36-.86.43-1.13.17-.27-.27-.19-.77.17-1.13.36-.36.86-.43,1.13-.17.27.27.19.77-.17,1.13Z"/>
            <path class="cls-3" d="M116.63,4.83c-.39-.55-1.05-.87-1.8-.87h-10.95c-.25,0-.46.21-.46.46s.21.46.46.46h3.02c.25,0,.46.21.46.46s-.21.46-.46.46h-2.52c-.25,0-.46.21-.46.46s.21.46.46.46h1.89c.25,0,.46.21.46.46s-.21.46-.46.46h-3.49c-.25,0-.46.21-.46.46s.21.46.46.46h2.84c.25,0,.46.21.46.46s-.21.46-.46.46h-1.24c-.25,0-.46.21-.46.46s.21.46.46.46h8.82c1.4,0,2.87-1.09,3.34-2.47l.33-.98c.26-.78.17-1.55-.24-2.13ZM115.33,6.44l-.33.98c-.24.73-1.08,1.36-1.79,1.36h-5.17l1.07-3.18h5.72c.16,0,.37.03.48.18.1.14.11.38.02.65Z"/>
          </g>
          <g>
            <g>
              <path class="cls-3" d="M95.15,16.23c0,.53-.07,1.06-.21,1.61-.14.54-.36,1.03-.67,1.47-.31.44-.72.79-1.23,1.07-.51.28-1.14.42-1.89.42h-2.34l1.4-7.48h2.13c.5,0,.93.07,1.29.21.36.14.65.34.87.6.22.26.39.56.49.92.1.36.15.75.15,1.18ZM93.35,16.36c0-.23-.02-.45-.06-.65-.04-.2-.11-.37-.21-.52-.1-.14-.22-.26-.36-.34-.15-.08-.33-.13-.54-.13h-.49l-.87,4.67h.51c.33,0,.63-.09.88-.28.25-.18.46-.42.63-.71.17-.29.3-.61.38-.97.08-.36.13-.71.13-1.07Z"/>
              <path class="cls-3" d="M96.61,20.79h-1.67l1.03-5.49h1.67l-1.03,5.49ZM98.01,13.63c0,.14-.03.27-.08.4-.05.12-.13.23-.22.32-.09.09-.2.16-.32.22-.13.05-.26.08-.4.08-.27,0-.47-.08-.62-.24-.14-.16-.22-.34-.22-.54,0-.13.02-.26.07-.39.05-.12.12-.23.21-.33.09-.1.2-.17.32-.23.12-.06.25-.08.4-.08.27,0,.48.08.63.23.15.15.22.34.22.57Z"/>
              <path class="cls-3" d="M101.55,13.88s-.08-.02-.14-.03c-.05,0-.11-.01-.17-.01-.13,0-.24.03-.34.08-.1.05-.17.12-.23.21-.06.09-.11.19-.15.3-.04.11-.07.23-.09.35l-.09.52h.89l-.22,1.21h-.89l-.81,4.28h-1.6l.8-4.28h-.74l.23-1.21h.73l.1-.54c.05-.29.13-.57.24-.83.11-.27.25-.5.43-.71.18-.2.4-.37.67-.49.27-.12.59-.18.96-.18.11,0,.22,0,.34.02.12.01.22.03.31.04l-.23,1.27Z"/>
              <path class="cls-3" d="M104.07,16.75c-.06-.06-.13-.12-.22-.16-.08-.04-.2-.06-.34-.06-.18,0-.35.07-.5.2-.15.13-.27.3-.38.5-.1.2-.18.43-.23.67-.05.25-.08.48-.08.7,0,.3.06.53.17.69.11.17.29.25.53.25.12,0,.23-.02.32-.06.1-.04.19-.09.28-.15l.43,1.21c-.16.12-.36.22-.59.29-.24.07-.49.11-.78.11-.35,0-.65-.06-.9-.17-.25-.11-.46-.27-.62-.46-.16-.2-.28-.43-.36-.69-.08-.26-.11-.55-.11-.85,0-.44.06-.88.19-1.31.13-.43.32-.82.56-1.17.25-.35.55-.63.9-.84.35-.21.75-.32,1.2-.32.36,0,.65.04.87.13.21.08.38.18.51.3l-.86,1.2Z"/>
              <path class="cls-3" d="M109.27,17.26c0,.48-.06.94-.19,1.38-.13.44-.32.84-.56,1.18-.24.34-.55.62-.91.82-.37.21-.78.31-1.24.31-.66,0-1.17-.2-1.54-.59-.36-.39-.55-.91-.55-1.56,0-.47.07-.93.2-1.37.13-.44.33-.84.58-1.18.25-.34.56-.62.92-.82.36-.2.78-.31,1.23-.31.65,0,1.16.2,1.52.59.36.39.54.91.54,1.55ZM107.67,17.39c0-.28-.05-.51-.14-.68-.1-.17-.25-.26-.46-.26-.19,0-.36.08-.5.23-.14.15-.26.35-.36.58-.09.23-.17.48-.22.74-.05.26-.07.5-.07.71,0,.27.04.5.13.67.09.17.24.25.45.25.19,0,.36-.08.51-.23.15-.15.27-.34.37-.57.1-.23.17-.47.22-.73.05-.26.07-.5.07-.72Z"/>
              <path class="cls-3" d="M114.18,17.41c0,.46-.06.89-.18,1.3-.12.41-.3.77-.53,1.08-.23.31-.52.55-.86.73-.34.18-.73.27-1.16.27h-1.27l1.03-5.48h1.21c.31,0,.57.05.79.15.22.1.4.25.54.43.14.18.25.4.32.66.07.26.1.54.1.85ZM113.6,17.43c0-.52-.11-.92-.32-1.21-.21-.29-.53-.44-.95-.44h-.65l-.85,4.55h.71c.31,0,.59-.08.85-.23.25-.15.47-.36.65-.63.18-.26.32-.57.42-.92.1-.35.15-.72.15-1.11Z"/>
              <path class="cls-3" d="M117.2,18.06c0,.1,0,.22-.02.35-.01.14-.04.32-.09.56h-2.19c-.03.18-.05.36-.05.53,0,.29.06.52.18.69.12.17.3.26.53.26.2,0,.36-.06.51-.17.14-.11.26-.25.35-.41l.39.23c-.14.23-.32.43-.53.58-.21.16-.47.24-.78.24-.38,0-.68-.12-.89-.37-.21-.24-.32-.59-.32-1.02,0-.31.04-.63.13-.95.08-.32.2-.61.36-.87.16-.26.35-.47.58-.64.23-.17.48-.25.76-.25.2,0,.36.03.5.09.14.06.25.15.33.26.09.11.15.25.19.4.04.15.06.32.06.49ZM116.69,18.08c0-.24-.05-.44-.15-.59-.1-.15-.25-.22-.46-.22-.16,0-.3.05-.43.14-.12.09-.23.2-.32.34-.09.13-.17.28-.23.43-.06.15-.1.28-.12.39h1.65c.02-.1.03-.18.04-.26.01-.07.02-.15.02-.22Z"/>
              <path class="cls-3" d="M117.74,20.79h-.54l1.1-5.85h.54l-1.1,5.85Z"/>
              <path class="cls-3" d="M119.04,20.79h-.53l.72-3.84h.53l-.72,3.84ZM120.06,15.82c0,.12-.04.22-.12.3-.08.08-.18.12-.29.12-.1,0-.18-.03-.23-.09-.06-.06-.08-.13-.08-.22,0-.1.04-.2.11-.29.08-.09.17-.13.29-.13.11,0,.19.03.24.09.06.06.08.13.08.22Z"/>
              <path class="cls-3" d="M121.12,20.79h-.64l-.36-3.84h.55l.22,3.3h.02l1.47-3.3h.58l-1.83,3.84Z"/>
              <path class="cls-3" d="M125.51,18.06c0,.1,0,.22-.02.35-.01.14-.04.32-.09.56h-2.19c-.03.18-.05.36-.05.53,0,.29.06.52.18.69.12.17.3.26.53.26.19,0,.36-.06.51-.17.14-.11.26-.25.35-.41l.39.23c-.15.23-.32.43-.53.58-.21.16-.47.24-.78.24-.38,0-.68-.12-.89-.37-.21-.24-.32-.59-.32-1.02,0-.31.04-.63.13-.95.08-.32.2-.61.36-.87.16-.26.35-.47.58-.64.23-.17.48-.25.76-.25.2,0,.36.03.5.09.14.06.25.15.33.26.09.11.15.25.19.4.04.15.06.32.06.49ZM125,18.08c0-.24-.05-.44-.15-.59-.1-.15-.25-.22-.46-.22-.16,0-.3.05-.43.14-.12.09-.23.2-.32.34-.09.13-.17.28-.23.43-.06.15-.1.28-.12.39h1.65c.02-.1.03-.18.04-.26.01-.07.02-.15.02-.22Z"/>
              <path class="cls-3" d="M127.74,17.36s-.09-.02-.13-.02c-.14,0-.27.04-.39.13s-.23.2-.33.34c-.1.14-.18.3-.25.48-.07.18-.12.36-.15.54l-.37,1.96h-.55l.54-2.86s.02-.12.03-.21c.02-.09.03-.19.05-.29.02-.1.03-.19.05-.28.01-.09.02-.15.03-.19h.53s-.01.1-.03.17c-.01.07-.03.15-.04.24-.02.09-.03.17-.05.25-.02.08-.03.14-.03.19h.03c.13-.33.3-.57.5-.73.2-.15.4-.23.61-.23.04,0,.07,0,.09,0l-.12.51Z"/>
              <path class="cls-3" d="M128.54,21.63c-.15.32-.31.57-.49.75-.18.18-.41.26-.71.26-.14,0-.26-.02-.36-.05l.11-.46c.07.03.15.05.26.05.17,0,.3-.05.4-.16.1-.11.19-.25.27-.43l.31-.7-.37-3.95h.56l.2,3.26h.02l1.43-3.26h.56l-2.18,4.68Z"/>
            </g>
            <path class="cls-7" d="M119.27,22.66c-.13-1.59-1.18-1.74-1.28-2.98h0s-18.78,1.57-18.78,1.57c.1,1.24-.91,1.56-.77,3.15.13,1.57,1.14,1.74,1.28,2.91v.06s0,0,0,0c0,0,0,0,0,0,0,0,0,0,0,0l18.77-1.57h0s0,0,0,0c-.1-1.24.91-1.56.77-3.15Z"/>
            <g class="cls-6">
              <polygon class="cls-1" points="102.14 22.4 102.14 22.38 101.51 22.44 101.49 22.44 101.6 23.72 100.91 23.78 100.8 22.51 100.8 22.49 100.17 22.55 100.15 22.55 100.44 25.93 100.44 25.95 101.07 25.89 101.08 25.89 100.96 24.4 101.65 24.34 101.77 25.82 101.78 25.84 102.41 25.78 102.42 25.78 102.14 22.4"/>
              <path class="cls-1" d="M104.7,23.88c-.02-.25-.05-.49-.09-.7-.04-.21-.1-.4-.19-.55-.09-.15-.2-.26-.35-.34-.15-.08-.34-.1-.57-.09-.23.02-.42.08-.55.18-.13.1-.23.23-.29.39-.06.16-.09.35-.1.57,0,.22,0,.45.03.71.02.26.05.49.09.71.04.21.1.4.19.55.09.15.21.26.35.33.11.06.26.08.43.08.05,0,.09,0,.14,0,.23-.02.42-.08.55-.17.13-.09.23-.22.29-.39.06-.16.09-.35.1-.57,0-.22,0-.46-.03-.71ZM104.05,24.9c-.02.1-.06.17-.11.22-.05.05-.12.08-.21.08-.09,0-.16,0-.22-.05-.06-.04-.1-.11-.14-.2-.04-.1-.07-.22-.09-.38-.02-.16-.04-.35-.06-.58-.02-.23-.03-.42-.03-.58,0-.16,0-.29.03-.39.02-.1.06-.17.11-.22.05-.05.12-.08.21-.08.01,0,.03,0,.04,0,.07,0,.13.02.18.05.06.04.1.11.14.2.04.1.07.22.09.38.02.15.04.35.06.57.02.23.03.42.03.58,0,.16,0,.29-.03.39Z"/>
              <polygon class="cls-1" points="106.43 22.61 106.38 22.04 106.38 22.03 104.55 22.18 104.54 22.18 104.58 22.75 104.58 22.77 105.18 22.72 105.42 25.51 105.42 25.53 106.05 25.48 106.06 25.47 105.83 22.66 106.41 22.61 106.43 22.61"/>
              <path class="cls-1" d="M109.45,23.43c-.02-.25-.05-.48-.1-.67-.04-.2-.11-.37-.19-.51-.09-.14-.2-.24-.34-.31-.14-.07-.32-.09-.54-.07l-1.01.08h-.01s.28,3.39.28,3.39h0s.99-.07.99-.07c.21-.02.38-.07.51-.15.13-.08.23-.2.3-.35.07-.15.11-.34.13-.56.01-.22,0-.48-.02-.78ZM108.14,24.77l-.2-2.34.25-.02c.11-.01.21,0,.28.05.07.04.13.11.17.2.04.09.08.21.1.35.02.14.04.31.06.5.02.23.03.42.03.58s-.02.28-.05.38c-.03.09-.08.16-.13.21-.06.04-.14.07-.25.08l-.26.02Z"/>
              <polygon class="cls-1" points="110.48 24.51 110.41 23.64 111.35 23.56 111.37 23.56 111.32 22.98 111.32 22.97 110.36 23.05 110.29 22.29 111.3 22.2 111.32 22.2 111.27 21.63 111.27 21.61 109.61 21.75 109.6 21.75 109.88 25.14 109.88 25.15 111.45 25.02 111.55 24.44 111.55 24.42 110.48 24.51"/>
              <path class="cls-1" d="M112.98,21.48h0s-.79.05-.79.05l-.53,3.47.66-.06h.01s.08-.73.08-.73l.79-.07.2.69h0s.66-.04.66-.04h.02s-1.1-3.32-1.1-3.32ZM112.64,22.16l.4,1.42-.57.05.16-1.47Z"/>
              <polygon class="cls-1" points="114.77 24.15 114.54 21.36 114.54 21.34 113.9 21.39 113.89 21.4 114.17 24.78 114.17 24.79 115.56 24.68 115.65 24.1 115.66 24.08 114.77 24.15"/>
              <path class="cls-1" d="M117.52,23.53c0-.1-.03-.2-.05-.28-.02-.08-.06-.16-.11-.23-.05-.07-.12-.13-.2-.19-.08-.06-.18-.11-.31-.15l-.5-.19c-.13-.05-.22-.1-.27-.17-.04-.07-.07-.15-.08-.25,0-.05,0-.1,0-.14,0-.05.02-.09.04-.12.02-.04.06-.07.1-.09.04-.02.1-.04.16-.05.12-.01.2.02.26.1.06.08.09.2.11.36h0s.61-.04.61-.04h.01s0-.11,0-.11c-.01-.16-.05-.3-.11-.41-.06-.11-.13-.2-.22-.27-.09-.07-.2-.11-.32-.14-.12-.02-.25-.03-.39-.02-.3.02-.53.13-.68.31-.16.18-.22.44-.19.78.01.14.04.26.08.37.04.1.1.2.17.27.07.08.17.14.27.19.1.05.23.1.37.14.11.03.2.06.27.09.07.03.13.06.18.1.05.04.08.09.1.14.02.05.04.12.04.19.01.14-.02.24-.08.31-.07.07-.15.11-.24.12-.08,0-.14,0-.2-.02-.05-.02-.1-.05-.13-.09-.03-.04-.06-.09-.07-.15-.02-.06-.03-.13-.03-.21v-.11s-.64.05-.64.05h-.01s.01.15.01.15c.03.31.12.55.29.71.14.13.35.2.62.2.05,0,.1,0,.16,0,.34-.03.6-.13.77-.31.18-.18.25-.45.22-.81Z"/>
            </g>
          </g>
        </g>
        <g>
          <path class="cls-11" d="M34.61,16.07c0-.86-7.54-4.47-7.58-3.38l-.27,7.73c-.02.52.22,1,.64,1.26,2.43,1.55,7.21,2.94,7.21.87v-6.48Z"/>
          <path class="cls-3" d="M0,18.98c3.49,1.15,8.19-4.56,16.08-7.93,6.28-2.68,11.02-2.99,14.61-1.82,2.56.83,3.92,2.12,3.92,4.62v8.69c0-.74-.36-1.51-1.08-2.19-2.21-2.07-7.8-3.32-17.01-.58-5.93,1.77-8.62,3.76-11.1,3.83C1.35,23.72,0,18.98,0,18.98Z"/>
          <path class="cls-2" d="M31.94,11.71c0,.08-.04.12-.12.13l.13.19h-.09l-.12-.19h-.07v.19h-.08v-.45h.19c.11,0,.16.04.16.12ZM31.66,11.65v.12h.06s.05,0,.07,0c.02,0,.03,0,.04-.01,0,0,.02-.01.02-.02,0,0,0-.02,0-.03,0-.04-.03-.06-.09-.06h-.1ZM31.75,12.22c-.22,0-.41-.18-.41-.41s.18-.41.41-.41.41.18.41.41-.18.41-.41.41ZM31.75,11.47c-.19,0-.34.15-.34.34s.15.34.34.34.34-.15.34-.34-.15-.34-.34-.34ZM28.74,14.66c-.07.13-.14.58.09.92.34.5,1.21.76,1.8.55.41-.14.65-.48.69-.95.06-.91-.44-1.42-.88-1.69h0c-.07-.04-.14-.08-.21-.12-.35-.2-.66-.43-.54-.77.04-.11.15-.19.29-.18.11,0,.37.06.47.58.15.02.5.01.69-.15.09-.08.14-.18.14-.3,0-.47-.62-1.02-1.31-1.16-.39-.08-.77-.01-1.04.18-.23.16-.38.41-.43.74-.16,1.04.37,1.53.79,1.81.11.08.22.14.33.2.32.18.57.33.52.6-.02.09-.08.16-.18.18-.33.08-1.03-.26-1.21-.43ZM27.96,13.99c0-.4,0-1.19,0-1.19-.02-1.92-1.48-1.98-2.17-1.12,0,0,0,0,0,.01-.05-.28-.26-.47-.51-.46-.29.02-.44.03-.73.05,0,.05,0,.08,0,.13,0,.42,0,.64.01,1.08,0,.4,0,.61.01,1.02,0,.61,0,.91.01,1.49,0,.33.24.58.52.58.29,0,.44,0,.73,0,0-.8-.01-1.24-.02-2.11h0c0-.32,0-.71,0-.94.27-.28.92-.42.92.33,0,.64,0,.96.01,1.59,0,.56.16,1.23.94,1.3.66.06.84-.7.69-1.09-.42.1-.39-.17-.4-.68ZM24.16,14.65c.16.35-.02,1.09-.69,1.13-.79.04-.94-.58-.94-1.1,0-.75-.01-1.14-.02-1.9,0-.48,0-.72-.01-1.18.29-.04.44-.06.73-.1.28-.04.52.2.52.53,0,.2,0,.3,0,.5h0s.01,1.16.02,1.53c0,.48-.03.74.4.59ZM23.04,11.21c.4-.05.73-.4.72-.76,0-.36-.33-.59-.74-.53-.4.06-.72.38-.72.74,0,.36.33.61.74.56ZM20.62,11.91c-.37.08-.7.35-.95.73,0,0,0,0,0,0-.04-.26-.25-.41-.51-.34-.29.08-.71.25-.71.25,0,.43.01.61.02,1.06.02,1.42.04,2.19.06,3.48,0,.28.23.44.51.39.28-.06.71-.15.71-.15,0-.54-.01-.82-.02-1.43.2.16.48.23.85.17.8-.12,1.58-1.16,1.57-2.36-.01-1.27-.59-2.01-1.52-1.81ZM20.89,13.92c-.03.62-.37,1.14-.78,1.19-.2.03-.33,0-.4-.08,0-.53-.01-.8-.02-1.33.12-.35.33-.63.59-.68.46-.1.64.28.61.9ZM16.72,13.04c-.36.13-.67.44-.91.83,0,0,0,0,0,0-.04-.24-.24-.35-.49-.25-.27.12-.68.34-.68.34,0,.41,0,.57.01.99.01,1.33.02,2.01.03,3.27,0,.27.2.39.49.31.29-.08.7-.21.7-.21,0-.54-.01-.84-.02-1.42.2.12.47.14.83.03.79-.24,1.54-1.33,1.52-2.44-.02-1.18-.59-1.79-1.49-1.46ZM16.99,14.88c-.03.58-.36,1.12-.76,1.23-.2.06-.32.05-.39,0,0-.49,0-.74-.02-1.24.11-.34.32-.64.57-.73.44-.16.62.16.6.74ZM12.61,14.87c-1.04.52-1.75,1.69-1.74,2.68.01.99.74,1.41,1.77.96,1.04-.45,1.78-1.55,1.77-2.61-.01-1.06-.77-1.55-1.8-1.03ZM12.64,17.59c-.41.18-.6-.12-.61-.61,0-.49.18-.99.59-1.19.41-.2.61.12.61.62,0,.5-.19.99-.59,1.18ZM8.59,16.44c-.08.05-1.35.92-1.35.92v3.94c0,.27.2.49.59.34.32-.12.59-.23.59-.23v-1.4c.83-.34,2.38-1.32,2.22-3.1-.16-1.7-1.43-.87-2.05-.47ZM8.42,19v-1.39c.43-.31,1.11-.83,1.09.02-.02.76-.77,1.22-1.09,1.38Z"/>
        </g>
        <g>
          <polygon class="cls-10" points="74.76 9.61 49.56 9.61 49.56 24.74 74.76 20.18 74.76 9.61"/>
          <polygon class="cls-2" points="50.16 24.07 50.16 8.61 75.49 8.61 75.49 19.52 50.16 24.07"/>
          <polygon class="cls-3" points="50.44 8.89 50.44 23.74 75.21 19.29 75.21 8.89 50.44 8.89"/>
          <path class="cls-9" d="M70.42,18.93v3.06l-2.47.45v-3.06s2.47-.45,2.47-.45ZM57.77,21.23l-2.47.45v3.06l2.47-.45v-3.06Z"/>
          <path class="cls-8" d="M67.95,22.44v-.85s1.4-.13,1.4-.13l-1.4.98ZM56.37,23.8l1.41.49v-.8s-1.41.31-1.41.31Z"/>
          <polygon class="cls-10" points="69.35 18.15 56.36 20.49 56.37 23.8 69.35 21.46 69.35 18.15"/>
          <path class="cls-2" d="M57.11,20.88l.3-.05c.35-.06.65.05.65.41h0c0,.29-.16.46-.33.56.2.03.35.14.35.42v.02c0,.36-.28.62-.68.69l-.3.05v-2.1ZM57.44,21.73c.21-.04.33-.18.33-.39h0c0-.21-.13-.29-.32-.25h-.04s0,.65,0,.65h.03ZM57.44,22.65c.21-.04.35-.18.35-.38h0c0-.22-.13-.31-.35-.28h-.04s0,.66,0,.66h.03ZM58.23,22.33v-.04c0-.34.15-.54.37-.58.08-.01.16,0,.23.02v-.13c0-.18-.09-.27-.25-.24-.1.02-.19.07-.27.12v-.27c.1-.06.19-.1.32-.13.3-.06.48.1.48.44v1.09s-.28.05-.28.05v-.19c-.06.15-.15.24-.27.27-.19.03-.32-.13-.32-.42ZM58.83,22.22v-.29s-.1-.02-.16-.01c-.11.02-.17.12-.17.3v.04c0,.18.06.25.15.23.1-.02.17-.13.17-.26ZM59.33,20.46l.28-.05v1.21s.29-.75.29-.75l.31-.06-.3.7.3.9-.31.06-.19-.64-.1.23v.46s-.28.05-.28.05v-2.12ZM60.24,21.65v-.06c0-.53.21-.84.47-.88.26-.05.44.2.44.72v.16s-.62.11-.62.11c.02.3.14.4.29.38.1-.02.17-.07.28-.16l.02.26c-.12.1-.21.15-.34.17-.29.05-.53-.17-.53-.69ZM60.88,21.4c0-.3-.06-.46-.17-.44-.1.02-.18.18-.19.51l.36-.06ZM61.33,21.48v-.12c0-.55.16-.8.36-.83.16-.03.24.09.29.2v-.75s.29-.05.29-.05v2.12s-.28.05-.28.05v-.23c-.05.13-.14.28-.29.31-.2.04-.36-.14-.36-.7ZM61.99,21.35v-.1c0-.33-.08-.49-.19-.47-.11.02-.18.22-.18.55v.09c0,.33.07.5.18.48.11-.02.19-.21.19-.54ZM62.94,21.85v-.31c.13.06.24.08.34.06.13-.02.22-.11.22-.26h0c0-.13-.04-.21-.23-.4-.26-.26-.35-.38-.35-.61h0c0-.32.21-.56.48-.61.14-.03.23-.01.32.02v.31c-.11-.05-.19-.07-.29-.05-.12.02-.22.12-.22.25h0c0,.12.04.18.23.37.28.28.35.41.35.64h0c0,.32-.22.56-.49.61-.14.02-.26,0-.37-.03ZM63.96,20.14l.28-.05v.2c.06-.14.15-.26.3-.28.21-.04.32.12.32.39v1.18s-.28.05-.28.05v-1.12c0-.16-.06-.24-.16-.22-.1.02-.18.13-.18.29v1.12s-.28.05-.28.05v-1.6ZM65.03,21.1v-.04c0-.34.15-.54.37-.58.08-.02.16,0,.23.02v-.13c0-.18-.09-.27-.25-.24-.1.02-.19.07-.27.12v-.27c.1-.06.19-.1.32-.13.3-.06.48.1.48.44v1.09s-.28.05-.28.05v-.19c-.06.15-.15.24-.27.27-.19.03-.32-.13-.32-.42ZM65.63,21v-.29s-.1-.02-.16-.01c-.11.02-.17.12-.17.29v.04c0,.18.06.25.15.23.1-.02.17-.13.17-.26ZM66.09,20.6v-.08c0-.53.22-.83.5-.88.1-.02.15-.01.21,0v.29c-.06-.03-.12-.04-.18-.03-.13.02-.24.18-.24.55v.09c0,.36.11.48.25.46.05,0,.12-.05.17-.1v.28c-.07.05-.13.09-.22.1-.28.05-.49-.17-.49-.7ZM66.98,19.08l.28-.05v1.21s.29-.75.29-.75l.31-.06-.3.7.3.9-.31.06-.19-.64-.1.23v.46s-.28.05-.28.05v-2.12ZM67.96,20.97v-.29c.12.04.22.06.31.04.09-.02.16-.09.16-.18h0c0-.09-.04-.15-.2-.28-.18-.15-.28-.27-.28-.46h0c0-.26.18-.45.42-.49.1-.02.17-.02.26,0v.28c-.08-.03-.16-.04-.25-.02-.1.02-.16.09-.16.17h0c0,.08.04.13.21.27.21.16.27.28.27.46h0c0,.27-.19.47-.42.51-.11.02-.22.01-.32-.02Z"/>
          <path class="cls-10" d="M64.92,8.74c0,.71-.58,1.29-1.29,1.29s-1.29-.58-1.29-1.29.58-1.29,1.29-1.29,1.29.58,1.29,1.29ZM51.9,12.81c0,2.91,2.89,3,2.89,4.99,0,.69-.3.98-.77,1.06s-.77-.14-.77-.84v-.72l-1.4.18v.64c0,1.63.75,2.42,2.21,2.16,1.45-.26,2.21-1.26,2.21-2.76,0-2.68-2.89-2.82-2.89-4.85,0-.71.27-.98.74-1,.47-.01.74.24.74.93v.39l1.4-.07v-.29c0-1.5-.74-2.36-2.18-2.36s-2.18.93-2.18,2.56ZM60.28,19.02l1.52-.27v-8.4s-1.32,0-1.32,0v5.17l-1.52-5.17h-1.86v9.23l1.33-.24v-6.51l1.84,6.18ZM67.37,10.34h-1.95v7.77l1.4-.27v-2.1l.55-.08c1.4-.17,2.08-.86,2.08-1.98v-1.63c0-1.12-.69-1.72-2.08-1.72ZM67.37,11.39c.44-.01.69.15.69.66v1.81c0,.52-.24.71-.69.75l-.55.06v-3.27l.55-.02ZM72.03,13.21c-.47-.38-.92-.75-.92-1.37,0-.43.15-.62.48-.63.15,0,.26.03.34.11.09.09.14.25.14.48v.33l1.12-.05v-.26c0-1.08-.58-1.68-1.63-1.68s-1.63.64-1.63,1.81.65,1.65,1.21,2.11c.47.39.88.72.88,1.31,0,.41-.16.62-.51.67-.16.02-.28,0-.35-.07-.09-.08-.14-.24-.14-.46v-.54l-1.12.13v.47c0,.6.15,1.04.46,1.3.21.18.48.27.81.27.12,0,.25-.01.39-.04,1.06-.18,1.64-.88,1.64-1.95,0-1.01-.62-1.52-1.17-1.96ZM62.87,10.38v8.18l.49-.09v-7.81c-.18-.07-.34-.16-.49-.28Z"/>
          <path class="cls-2" d="M73.97,10.1c0,.07-.03.1-.1.11l.11.17h-.08l-.1-.17h-.06v.17h-.07v-.38h.17c.09,0,.14.04.14.11ZM73.73,10.04v.1h.06s.04,0,.06,0c.02,0,.03,0,.04,0,0,0,.01,0,.02-.02,0,0,0-.02,0-.03,0-.03-.03-.05-.08-.05h-.09ZM54.57,10.25c1.44,0,2.18.85,2.18,2.34v.29l-1.4.07v-.4c0-.68-.27-.93-.74-.92-.47.01-.74.28-.74.98,0,2.02,2.89,2.15,2.89,4.8,0,1.49-.75,2.47-2.21,2.73-1.45.26-2.21-.52-2.21-2.13v-.62l1.4-.17v.7c0,.7.3.91.77.84.47-.07.77-.36.77-1.05,0-1.96-2.89-2.06-2.89-4.93,0-1.61.74-2.53,2.18-2.53ZM58.93,12.81v6.45l-1.33.24v-9.14h1.86s1.52,5.11,1.52,5.11v-5.12h1.32s0,8.31,0,8.31l-1.52.27-1.84-6.12ZM69.95,12.04v1.61c0,1.11-.69,1.79-2.08,1.95l-.55.08v2.08l-1.4.26v-7.68h1.95c1.4,0,2.08.59,2.08,1.7ZM67.31,11.4v3.22l.55-.06c.44-.04.69-.23.69-.74v-1.79c0-.51-.24-.67-.69-.66l-.55.02ZM72.52,13.18c-.47-.38-.92-.74-.92-1.36,0-.42.15-.62.48-.62.15,0,.26.03.34.11.09.09.14.25.14.47v.33l1.12-.05v-.25c0-1.07-.58-1.66-1.63-1.66s-1.63.64-1.63,1.79.65,1.63,1.21,2.09c.47.38.88.71.88,1.3,0,.4-.16.62-.51.67-.16.02-.28,0-.35-.07-.09-.08-.14-.23-.14-.45v-.54l-1.12.13v.47c0,.6.15,1.03.46,1.29.21.18.48.26.81.26.12,0,.25-.01.39-.03,1.06-.18,1.64-.87,1.64-1.93,0-1-.62-1.5-1.17-1.94ZM64.11,7.45c-.71,0-1.29.58-1.29,1.29s.58,1.29,1.29,1.29,1.29-.58,1.29-1.29-.58-1.29-1.29-1.29ZM64.35,10.79c-.08,0-.16.01-.24.01-.27,0-.52-.05-.75-.14v7.81l1.48-.26v-7.54c-.16.06-.32.1-.49.12ZM73.81,10.51c-.18,0-.33-.15-.33-.33s.15-.33.33-.33.33.15.33.33-.15.33-.33.33ZM73.81,9.9c-.15,0-.28.13-.28.28s.13.28.28.28.28-.13.28-.28-.13-.28-.28-.28Z"/>
        </g>
      </g>
    </g>
    <g id="lines">
      <line class="cls-4" y1=".14" x2="251.65" y2=".14"/>
    </g>
  </g>
</svg>