<?xml version="1.0" encoding="UTF-8"?>
<svg id="Layer_1" data-name="Layer 1" xmlns="http://www.w3.org/2000/svg" viewBox="0 0 88 38">
  <defs>
    <style>
      .cls-1 {
        fill: #0071bb;
      }

      .cls-2 {
        fill: #00ade5;
      }

      .cls-3 {
        fill: #004687;
      }
    </style>
  </defs>
  <path class="cls-1" d="M5.84,18.14c-4.96,0-5.49,2.16-5.59,2.41-.1.25,0,0,0,0-1.03,3.12,1.3,4.56,3.05,4.56h1.68c1.79,0,4-1.51,4.73-3.25l1.46-3.72h-5.33Z"/>
  <path class="cls-2" d="M19.46,0h-4.34c-3.83,0-8.13,3.14-9.54,6.97l-2.3,5.85c2.05-3.79,6.61-6.45,12.17-6.5l.94-2.38,4.89,4.59-8.5,4.59.95-2.42c-3.58.02-9.77,1.04-13.15,9.03,0,.01-.04.08-.06.15,1.29-2.73,4.03-2.74,5.71-2.74h6.91c3.83,0,10.21,0,12.74-6.97C28.42,3.19,23.3,0,19.46,0"/>
  <path class="cls-3" d="M31.08,24.95c-.49,0-.84-.11-1.15-.41l.33-.31c.24.22.5.29.83.29.42,0,.67-.17.67-.47,0-.13-.04-.25-.13-.32-.08-.07-.16-.1-.36-.13l-.38-.05c-.26-.03-.47-.12-.61-.25-.16-.14-.24-.34-.24-.59,0-.54.41-.9,1.08-.9.43,0,.73.1,1.01.35l-.31.29c-.2-.18-.43-.24-.71-.24-.38,0-.59.21-.59.48,0,.11.04.21.12.29.08.07.21.12.36.14l.37.05c.3.04.47.11.61.23.18.15.26.37.26.63,0,.57-.49.9-1.17.9"/>
  <path class="cls-3" d="M34.72,24.93l-.22-.62h-1.28l-.22.62h-.52l1.19-3.08h.4l1.19,3.08h-.52ZM33.87,22.54l-.51,1.37h1l-.49-1.37Z"/>
  <polygon class="cls-3" points="35.66 24.93 35.66 21.85 36.15 21.85 36.15 24.51 37.71 24.51 37.71 24.93 35.66 24.93"/>
  <polygon class="cls-3" points="38.23 24.93 38.23 21.85 40.3 21.85 40.3 22.27 38.72 22.27 38.72 23.17 40.07 23.17 40.07 23.58 38.72 23.58 38.72 24.51 40.3 24.51 40.3 24.93 38.23 24.93"/>
  <path class="cls-3" d="M41.79,24.95c-.49,0-.84-.11-1.15-.41l.33-.31c.24.22.5.29.83.29.42,0,.67-.17.67-.47,0-.13-.04-.25-.13-.32-.08-.07-.16-.1-.36-.13l-.38-.05c-.26-.03-.47-.12-.61-.25-.16-.14-.24-.34-.24-.59,0-.54.41-.9,1.08-.9.43,0,.73.1,1.01.35l-.31.29c-.2-.18-.43-.24-.71-.24-.38,0-.59.21-.59.48,0,.11.04.21.12.29.08.07.21.12.36.14l.37.05c.3.04.47.11.61.23.18.15.26.37.26.63,0,.57-.49.9-1.17.9"/>
  <path class="cls-3" d="M46.57,24.93l-.26-.3c-.14.12-.41.33-.9.33-.67,0-1.05-.36-1.05-.92,0-.43.32-.67.64-.87-.15-.16-.34-.38-.34-.66,0-.39.31-.68.79-.68s.77.29.77.69c0,.24-.14.41-.35.55,0,0-.16.1-.24.16l.68.77c.12-.16.17-.34.17-.62h.45c-.01.39-.1.71-.32.95l.54.61h-.6ZM45.26,23.44c-.24.16-.44.3-.44.58,0,.31.25.52.59.52.22,0,.41-.06.62-.24l-.77-.87ZM45.46,22.21c-.2,0-.32.13-.32.3,0,.13.09.24.25.42.05-.03.15-.1.15-.1.13-.08.24-.18.24-.32,0-.17-.13-.31-.32-.31"/>
  <path class="cls-3" d="M50.64,24.64c-.2.19-.5.29-.84.29h-1.14v-3.08h1.14c.34,0,.63.1.84.29.35.33.33.78.33,1.23s.02.94-.33,1.27M50.31,22.47c-.14-.14-.32-.21-.55-.21h-.6v2.24h.6c.23,0,.41-.06.55-.21.17-.18.17-.51.17-.93s0-.71-.17-.89"/>
  <rect class="cls-3" x="51.7" y="21.85" width=".49" height="3.08"/>
  <path class="cls-3" d="M53.9,24.95c-.49,0-.84-.11-1.15-.41l.33-.31c.24.22.5.29.83.29.42,0,.67-.17.67-.47,0-.13-.04-.25-.13-.32-.08-.07-.16-.1-.36-.13l-.38-.05c-.26-.03-.47-.12-.61-.25-.16-.14-.24-.34-.24-.59,0-.54.41-.9,1.08-.9.43,0,.73.1,1.01.35l-.31.29c-.2-.18-.43-.24-.71-.24-.38,0-.59.21-.59.48,0,.11.04.21.12.29.08.07.21.12.36.14l.37.05c.3.04.47.11.61.23.18.15.26.37.26.63,0,.57-.49.9-1.17.9"/>
  <polygon class="cls-3" points="56.82 22.27 56.82 24.93 56.33 24.93 56.33 22.27 55.44 22.27 55.44 21.85 57.72 21.85 57.72 22.27 56.82 22.27"/>
  <path class="cls-3" d="M60.07,24.93l-.68-1.3h-.62v1.3h-.49v-3.08h1.26c.61,0,1.01.38,1.01.9,0,.44-.28.72-.65.82l.75,1.36h-.57ZM59.5,22.27h-.73v.96h.73c.33,0,.55-.18.55-.48s-.22-.48-.55-.48"/>
  <rect class="cls-3" x="61.26" y="21.85" width=".49" height="3.08"/>
  <path class="cls-3" d="M63.91,24.93h-1.31v-3.08h1.26c.6,0,.98.32.98.84,0,.33-.22.57-.44.65.25.1.49.32.49.71,0,.57-.41.87-.98.87M63.82,22.27h-.73v.88h.73c.31,0,.53-.16.53-.44s-.21-.44-.53-.44M63.86,23.57h-.77v.94h.77c.34,0,.53-.2.53-.47s-.19-.47-.53-.47"/>
  <path class="cls-3" d="M66.73,24.95c-.66,0-1.16-.43-1.16-1.06v-2.04h.49v2.02c0,.41.26.67.67.67s.67-.26.67-.67v-2.02h.49v2.04c0,.64-.51,1.06-1.17,1.06"/>
  <polygon class="cls-3" points="69.79 22.27 69.79 24.93 69.3 24.93 69.3 22.27 68.4 22.27 68.4 21.85 70.68 21.85 70.68 22.27 69.79 22.27"/>
  <rect class="cls-3" x="71.24" y="21.85" width=".49" height="3.08"/>
  <path class="cls-3" d="M74.48,24.62c-.22.21-.51.33-.86.33s-.63-.12-.85-.33c-.32-.3-.31-.64-.31-1.24s0-.93.31-1.24c.22-.21.51-.33.85-.33s.63.12.86.33c.32.3.31.64.31,1.24s0,.93-.31,1.24M74.11,22.43c-.11-.12-.29-.19-.48-.19s-.37.07-.48.19c-.16.16-.19.34-.19.96s.03.79.19.96c.11.12.29.19.48.19s.37-.07.48-.19c.16-.16.19-.34.19-.96s-.03-.79-.19-.96"/>
  <polygon class="cls-3" points="77.51 24.93 76.01 22.76 76.01 24.93 75.52 24.93 75.52 21.85 75.97 21.85 77.47 24.01 77.47 21.85 77.96 21.85 77.96 24.93 77.51 24.93"/>
  <path class="cls-3" d="M80,24.95c-.33,0-.61-.05-.85-.28l.27-.25c.16.16.38.2.58.2.25,0,.44-.08.44-.27,0-.13-.08-.21-.27-.23l-.32-.03c-.38-.03-.6-.19-.6-.53,0-.37.34-.59.76-.59.3,0,.56.06.75.22l-.25.25c-.13-.1-.31-.14-.5-.14-.24,0-.37.1-.37.25,0,.11.06.2.28.22l.32.03c.38.03.6.2.6.54,0,.4-.36.61-.84.61"/>
  <path class="cls-3" d="M82.38,24.93v-.17c-.15.14-.29.2-.54.2s-.42-.06-.54-.17c-.1-.1-.16-.25-.16-.41,0-.32.24-.55.7-.55h.53v-.14c0-.24-.13-.36-.44-.36-.22,0-.33.05-.44.19l-.27-.24c.19-.21.39-.28.73-.28.55,0,.83.22.83.66v1.28h-.4ZM82.37,24.08h-.47c-.24,0-.36.1-.36.28s.12.27.37.27c.16,0,.27-.01.38-.11.06-.06.09-.15.09-.28v-.16Z"/>
  <path class="cls-3" d="M83.91,24.93c-.38,0-.55-.25-.55-.53v-2.17h.41v2.14c0,.15.06.22.22.22h.18v.33h-.25Z"/>
  <path class="cls-3" d="M35.77,6.17h-5.77v12.88h3.57v-3.86h2.23c2.81,0,4.65-1.63,4.65-4.48s-1.85-4.54-4.68-4.54M35.37,12.01h-1.8v-2.69h1.8c.87,0,1.36.54,1.36,1.34s-.51,1.34-1.36,1.34"/>
  <path class="cls-3" d="M50.56,15.06c-.14-.29-.31-.54-.49-.78,1.23-.69,1.96-1.98,1.96-3.74,0-2.81-1.78-4.37-4.52-4.37h-5.93v12.88h3.57v-4.28h1.35l1.99,4.28h4.17l-2.11-3.99ZM47.11,11.74h-1.96v-2.41h1.96c.78,0,1.2.45,1.2,1.2s-.44,1.22-1.2,1.22"/>
  <rect class="cls-3" x="53.88" y="6.17" width="3.58" height="12.88"/>
  <path class="cls-3" d="M69.43,6.17l-3.32,6.42-3.25-6.42h-3.25v12.88h3.39v-6.42c.19.51.39,1.01.56,1.32l1.33,2.56h2.44l1.28-2.56c.17-.34.4-.86.62-1.39v6.49h3.52V6.17h-3.32Z"/>
  <polygon class="cls-3" points="74.88 6.17 74.88 19.05 84.17 19.05 84.17 15.87 78.46 15.87 78.46 14.13 83.07 14.13 83.07 10.96 78.46 10.96 78.46 9.32 84.03 9.32 84.03 6.17 74.88 6.17"/>
</svg>