<?xml version="1.0" encoding="UTF-8"?>
<svg id="Layer_1" data-name="Layer 1" xmlns="http://www.w3.org/2000/svg" viewBox="0 0 88 50">
  <defs>
    <style>
      .cls-1 {
        fill: #656a6f;
      }

      .cls-2 {
        fill: #ed3436;
      }
    </style>
  </defs>
  <path class="cls-1" d="M46.26,37.74v.31h-2.15v-.31l.61-.14v-4.46l-.61-.14v-.31h1.14l.12.57c.17-.25.36-.42.57-.51.21-.09.46-.14.72-.14s.51.04.73.11c.22.07.4.19.53.36.16.19.28.41.38.68.09.26.14.55.14.86s-.05.62-.15.9c-.1.28-.24.51-.42.7-.3.32-.72.48-1.28.48-.23,0-.43-.04-.61-.12-.18-.08-.35-.22-.5-.43v1.44l.77.14ZM45.48,34.63c0,.59.09,1.02.28,1.29.08.13.19.23.31.29.12.07.28.1.48.1.36,0,.63-.12.8-.35.1-.12.16-.3.21-.52.04-.22.06-.48.06-.77,0-.58-.09-1.01-.28-1.29-.09-.13-.19-.23-.32-.29-.12-.07-.28-.1-.48-.1-.18,0-.34.03-.48.09-.13.06-.24.14-.31.26-.09.13-.16.31-.21.52-.05.21-.07.47-.07.77"/>
  <path class="cls-1" d="M40.43,34.79c0,.16,0,.3,0,.42,0,.12.01.22.02.31,0,.08.02.16.04.22.02.06.04.11.06.16.12.24.34.36.67.36.14,0,.28-.02.41-.07.13-.05.25-.12.35-.2.12-.1.2-.21.26-.35.06-.13.09-.3.1-.51v-1.99l-.69-.14v-.31h1.46v3.57l.61.14v.3l-1.23.07-.09-.82h-.03c-.15.25-.36.45-.63.6-.26.15-.55.22-.85.22-.2,0-.38-.04-.55-.1-.17-.07-.3-.17-.39-.3-.11-.14-.18-.33-.23-.58-.04-.25-.07-.59-.07-1.01v-1.64l-.53-.14v-.31h1.3v2.1Z"/>
  <path class="cls-1" d="M38.53,34.66c0,.33-.05.63-.15.92-.1.29-.25.53-.43.71-.31.32-.77.48-1.38.48s-1.04-.16-1.36-.47c-.18-.18-.32-.41-.42-.68-.1-.27-.15-.56-.15-.88s.05-.64.15-.93c.1-.29.25-.53.44-.72.17-.17.36-.29.59-.37.22-.08.48-.12.78-.12s.55.04.78.12c.23.08.43.19.59.35.18.18.33.41.42.69.09.27.14.57.14.89M35.5,34.66c0,.59.1,1.04.29,1.33.09.13.2.23.32.29.12.07.29.1.49.1.36,0,.64-.12.82-.35.09-.13.16-.31.21-.53.04-.23.07-.49.07-.79,0-.59-.09-1.03-.28-1.32-.09-.13-.2-.23-.33-.29-.13-.07-.29-.1-.49-.1-.37,0-.64.11-.8.34-.19.28-.29.72-.29,1.32"/>
  <path class="cls-1" d="M33.37,33.12s-.1-.04-.16-.04c-.1,0-.21.06-.32.18-.11.12-.21.26-.29.44-.07.17-.13.35-.17.55-.04.2-.06.41-.06.62v1.39l.86.14v.31h-2.23v-.31l.61-.14v-3.12l-.61-.14v-.31h1.14l.17.98h.03c.12-.34.28-.6.49-.78.2-.18.43-.28.69-.28.21,0,.38.06.52.18.14.12.21.28.21.49,0,.15-.04.27-.12.35-.08.09-.19.13-.33.13s-.25-.04-.33-.12c-.08-.08-.12-.19-.12-.32,0-.03,0-.06,0-.08,0-.02.02-.06.03-.12"/>
  <path class="cls-1" d="M27.7,36.29c.9,0,1.35-.42,1.35-1.25v-.52l-.67-.16v-.33h2.12v.33l-.67.16v2.18h-.41l-.2-.59c-.23.24-.47.41-.71.51-.24.1-.53.15-.86.15-.72,0-1.3-.21-1.74-.62-.25-.24-.44-.53-.57-.89-.13-.35-.2-.75-.2-1.18s.07-.85.21-1.23c.14-.38.34-.69.59-.94.43-.43,1.01-.64,1.74-.64.32,0,.59.05.81.14.22.09.44.24.64.45l.17-.51h.44v1.64h-.48c-.15-.88-.69-1.32-1.61-1.32-.27,0-.49.04-.67.12-.18.08-.34.21-.47.38-.15.21-.27.47-.36.79-.08.32-.13.65-.13,1.01s.05.71.14,1.02c.09.31.22.57.39.79.14.17.29.3.47.38.18.08.4.12.67.12"/>
  <path class="cls-2" d="M36.8,28.08c10.18,0,20.28,1.22,30.06,3.64-9.55-3.71-19.65-5.58-30.06-5.58s-20.5,1.88-30.06,5.58c9.78-2.42,19.87-3.64,30.06-3.64"/>
  <path class="cls-1" d="M72.98,14.92c0,1.26-.19,2.44-.58,3.55-.39,1.11-.93,2.02-1.63,2.75-1.18,1.24-2.91,1.86-5.2,1.86s-3.93-.6-5.11-1.81c-.68-.71-1.2-1.58-1.57-2.62-.37-1.04-.55-2.17-.55-3.39s.19-2.45.57-3.58c.38-1.13.93-2.05,1.64-2.78.64-.65,1.37-1.12,2.21-1.42.84-.3,1.81-.44,2.93-.44s2.08.15,2.96.44c.88.3,1.61.75,2.21,1.36.7.71,1.23,1.59,1.58,2.65.36,1.06.54,2.2.54,3.42M61.54,14.94c0,2.29.36,4,1.08,5.13.34.5.74.87,1.21,1.13.47.26,1.08.39,1.84.39,1.37,0,2.4-.45,3.08-1.35.36-.5.62-1.18.79-2.06.17-.88.25-1.89.25-3.04,0-2.27-.36-3.97-1.08-5.1-.34-.5-.75-.87-1.23-1.13-.48-.26-1.1-.39-1.85-.39-1.39,0-2.4.44-3.02,1.32-.72,1.07-1.08,2.77-1.08,5.1"/>
  <path class="cls-1" d="M50.25,7.04c1.73,0,3.11.41,4.14,1.22,1.03.81,1.54,1.9,1.54,3.25,0,1.47-.62,2.21-1.85,2.21-.58,0-1.03-.15-1.34-.46-.32-.3-.48-.72-.48-1.23,0-.48.13-.89.4-1.23.27-.34.63-.58,1.09-.72-.58-1.05-1.68-1.58-3.32-1.58s-2.82.51-3.57,1.52c-.75,1.01-1.12,2.61-1.12,4.78,0,1.81.26,3.2.78,4.15.8,1.47,2.1,2.21,3.91,2.21.92,0,1.79-.19,2.63-.57.84-.38,1.55-.93,2.15-1.63l.9.69c-.8,1.18-1.71,2.05-2.75,2.61-1.04.55-2.25.83-3.65.83s-2.6-.27-3.63-.82c-1.03-.54-1.83-1.34-2.41-2.39-.34-.61-.6-1.31-.79-2.11-.19-.79-.28-1.64-.28-2.53,0-1.24.18-2.36.54-3.37.36-1,.87-1.86,1.54-2.58.67-.72,1.47-1.27,2.42-1.66.95-.39,2-.59,3.15-.59"/>
  <path class="cls-1" d="M42.55,1.03c-.7-.54-1.64-.82-2.84-.82-1.69,0-3.04.6-4.03,1.79-1,1.19-1.49,2.89-1.49,5.08v.29h-2.31v1.43h2.31v12.26l-2.3.54v1.17h8.43v-1.17l-3.23-.54v-12.26h3.83v-1.43h-3.83v-1.43c0-.46,0-.9.01-1.33,0-.43.06-.84.15-1.23.09-.39.22-.74.4-1.05.18-.31.44-.55.78-.74.34-.19.74-.29,1.2-.29.58,0,1.04.17,1.38.52-.32.5-.48.99-.48,1.49,0,.46.14.81.42,1.06.28.25.65.37,1.11.37s.86-.14,1.14-.42c.28-.28.42-.68.42-1.22,0-.84-.35-1.53-1.05-2.08"/>
  <polygon class="cls-1" points="22.37 8.55 22.37 7.38 27.57 7.38 27.57 21.07 29.87 21.62 29.87 22.79 22.37 22.79 22.37 21.62 24.67 21.07 24.67 9.1 22.37 8.55"/>
  <path class="cls-2" d="M24.67,5.5v.9C26.1,3.28,30.9,5.31,31.2,0h-.67C26.95,0,24.67,2.14,24.67,5.5"/>
  <path class="cls-1" d="M10.4,2.08c2.96,0,5.26.81,6.91,2.42.93.92,1.65,2.05,2.14,3.39.5,1.34.74,2.78.74,4.32,0,1.63-.26,3.15-.77,4.55-.52,1.4-1.25,2.58-2.2,3.54-.83.86-1.83,1.5-2.98,1.9-1.15.4-2.52.61-4.11.61H.62v-1.24l2.5-.6V3.92l-2.5-.6v-1.24h9.78ZM10.49,21.07c2.1,0,3.65-.63,4.64-1.9,1.09-1.34,1.64-3.53,1.64-6.56s-.55-5.22-1.64-6.68c-1.03-1.42-2.68-2.13-4.94-2.13h-4.09v17.26h4.39Z"/>
</svg>