<?xml version="1.0" encoding="UTF-8"?>
<svg id="Layer_1" data-name="Layer 1" xmlns="http://www.w3.org/2000/svg" viewBox="0 0 88 38">
  <defs>
    <style>
      .cls-1 {
        fill: #00adee;
      }

      .cls-2 {
        fill: #004784;
      }

      .cls-3 {
        fill: #0088cf;
      }

      .cls-4 {
        fill: #0060ae;
      }
    </style>
  </defs>
  <g>
    <g>
      <polygon class="cls-4" points="18.4 18.4 18.4 9.12 13.84 4.56 13.67 13.67 18.4 18.4 18.4 18.4"/>
      <polygon class="cls-2" points="13.67 13.67 4.56 13.84 9.12 18.4 18.4 18.4 13.67 13.67"/>
    </g>
    <g>
      <polygon class="cls-3" points="0 9.28 4.56 13.84 4.73 4.73 0 0 0 9.28"/>
      <polygon class="cls-1" points="4.73 4.73 13.84 4.56 9.28 0 0 0 4.73 4.73"/>
    </g>
  </g>
  <g>
    <g>
      <path class="cls-2" d="M24.22,25.44c-.55,0-.94-.13-1.29-.48l.37-.36c.27.27.56.35.93.35.48,0,.75-.2.75-.56,0-.16-.05-.29-.14-.38-.09-.09-.18-.12-.4-.15l-.43-.06c-.3-.04-.53-.14-.69-.29-.18-.17-.27-.4-.27-.7,0-.63.46-1.07,1.22-1.07.48,0,.82.12,1.13.41l-.35.35c-.23-.22-.49-.28-.79-.28-.43,0-.67.25-.67.57,0,.13.04.25.14.34.09.08.24.14.41.17l.41.06c.34.05.53.13.68.27.2.17.3.43.3.75,0,.67-.55,1.07-1.31,1.07Z"/>
      <path class="cls-2" d="M28.31,25.41l-.25-.73h-1.44l-.25.73h-.59l1.34-3.64h.45l1.34,3.64h-.59ZM27.35,22.59l-.57,1.62h1.12l-.55-1.62Z"/>
      <path class="cls-2" d="M29.36,25.41v-3.64h.55v3.15h1.76v.5h-2.31Z"/>
      <path class="cls-2" d="M32.25,25.41v-3.64h2.33v.5h-1.78v1.06h1.51v.49h-1.51v1.09h1.78v.5h-2.33Z"/>
      <path class="cls-2" d="M36.25,25.44c-.55,0-.94-.13-1.29-.48l.37-.36c.27.27.56.35.93.35.48,0,.75-.2.75-.56,0-.16-.05-.29-.14-.38-.09-.09-.18-.12-.4-.15l-.43-.06c-.3-.04-.53-.14-.69-.29-.18-.17-.27-.4-.27-.7,0-.63.46-1.07,1.22-1.07.48,0,.82.12,1.13.41l-.35.35c-.23-.22-.49-.28-.79-.28-.43,0-.67.25-.67.57,0,.13.04.25.14.34.09.08.24.14.41.17l.41.06c.34.05.53.13.68.27.2.17.3.43.3.75,0,.67-.55,1.07-1.31,1.07Z"/>
      <path class="cls-2" d="M41.73,25.41l-.3-.36c-.16.14-.46.39-1.01.39-.76,0-1.18-.42-1.18-1.08,0-.51.36-.79.72-1.03-.16-.19-.38-.45-.38-.78,0-.47.35-.81.89-.81s.86.35.86.81c0,.29-.16.49-.39.64,0,0-.18.12-.27.18l.77.92c.13-.19.19-.4.19-.73h.5c-.02.47-.12.83-.36,1.12l.61.73h-.67ZM40.26,23.66c-.27.18-.49.35-.49.69,0,.36.28.62.66.62.25,0,.46-.07.7-.28l-.86-1.03ZM40.48,22.19c-.23,0-.36.15-.36.36,0,.15.1.29.28.5.06-.04.17-.12.17-.12.14-.1.27-.21.27-.38,0-.2-.15-.36-.36-.36Z"/>
      <path class="cls-2" d="M46.41,25.07c-.23.23-.56.34-.94.34h-1.28v-3.64h1.28c.38,0,.71.11.94.34.39.39.37.93.37,1.45s.03,1.11-.37,1.5ZM46.03,22.51c-.15-.17-.36-.25-.62-.25h-.67v2.65h.67c.26,0,.47-.08.62-.25.19-.21.19-.6.19-1.11s0-.84-.19-1.05Z"/>
      <path class="cls-2" d="M47.54,25.41v-3.64h.55v3.64h-.55Z"/>
      <path class="cls-2" d="M49.96,25.44c-.55,0-.94-.13-1.29-.48l.37-.36c.27.27.56.35.93.35.48,0,.75-.2.75-.56,0-.16-.05-.29-.14-.38-.09-.09-.18-.12-.4-.15l-.43-.06c-.3-.04-.53-.14-.69-.29-.18-.17-.27-.4-.27-.7,0-.63.46-1.07,1.22-1.07.48,0,.82.12,1.13.41l-.35.35c-.23-.22-.49-.28-.79-.28-.43,0-.67.25-.67.57,0,.13.04.25.14.34.09.08.24.14.41.17l.41.06c.34.05.53.13.68.27.2.17.3.43.3.75,0,.67-.55,1.07-1.31,1.07Z"/>
      <path class="cls-2" d="M53.15,22.27v3.15h-.55v-3.15h-1v-.5h2.56v.5h-1Z"/>
      <path class="cls-2" d="M56.74,25.41l-.77-1.54h-.69v1.54h-.55v-3.64h1.41c.69,0,1.13.45,1.13,1.06,0,.52-.32.85-.73.97l.84,1.61h-.64ZM56.1,22.27h-.82v1.14h.82c.37,0,.62-.21.62-.57s-.25-.57-.62-.57Z"/>
      <path class="cls-2" d="M58.03,25.41v-3.64h.55v3.64h-.55Z"/>
      <path class="cls-2" d="M60.96,25.41h-1.47v-3.64h1.42c.68,0,1.1.38,1.1,1,0,.39-.25.68-.49.77.28.11.55.38.55.84,0,.67-.46,1.03-1.1,1.03ZM60.85,22.27h-.82v1.04h.82c.35,0,.59-.18.59-.52s-.24-.52-.59-.52ZM60.9,23.81h-.87v1.11h.87c.38,0,.6-.24.6-.56s-.22-.55-.6-.55Z"/>
      <path class="cls-2" d="M64.07,25.44c-.74,0-1.3-.51-1.3-1.26v-2.42h.55v2.39c0,.49.3.79.75.79s.76-.3.76-.79v-2.39h.55v2.42c0,.75-.57,1.26-1.31,1.26Z"/>
      <path class="cls-2" d="M67.46,22.27v3.15h-.55v-3.15h-1v-.5h2.56v.5h-1Z"/>
      <path class="cls-2" d="M69.04,25.41v-3.64h.55v3.64h-.55Z"/>
      <path class="cls-2" d="M72.63,25.05c-.25.25-.57.39-.96.39s-.71-.14-.96-.39c-.36-.36-.35-.76-.35-1.46s0-1.11.35-1.46c.25-.25.57-.39.96-.39s.71.14.96.39c.36.36.35.76.35,1.46s.01,1.11-.35,1.46ZM72.21,22.46c-.13-.14-.33-.23-.54-.23s-.41.09-.54.23c-.18.19-.22.4-.22,1.13s.04.94.22,1.13c.13.14.33.23.54.23s.41-.09.54-.23c.18-.19.21-.4.21-1.13s-.04-.94-.21-1.13Z"/>
      <path class="cls-2" d="M75.98,25.41l-1.68-2.56v2.56h-.55v-3.64h.51l1.68,2.56v-2.56h.55v3.64h-.51Z"/>
      <path class="cls-2" d="M78.77,25.44c-.37,0-.68-.06-.95-.33l.3-.3c.18.19.43.24.65.24.28,0,.5-.1.5-.31,0-.15-.08-.25-.3-.27l-.36-.03c-.43-.04-.67-.23-.67-.63,0-.44.38-.69.86-.69.34,0,.63.07.84.26l-.29.29c-.14-.12-.34-.17-.56-.17-.27,0-.41.12-.41.29,0,.13.07.24.31.26l.36.03c.43.04.68.24.68.64,0,.47-.4.72-.95.72Z"/>
      <path class="cls-2" d="M81.49,25.41v-.21c-.17.17-.32.23-.6.23s-.47-.07-.61-.21c-.12-.12-.18-.3-.18-.49,0-.38.26-.65.78-.65h.6v-.16c0-.29-.14-.43-.5-.43-.25,0-.37.06-.5.22l-.3-.28c.21-.25.44-.33.81-.33.62,0,.94.26.94.78v1.52h-.45ZM81.48,24.41h-.53c-.27,0-.41.12-.41.33s.13.32.42.32c.17,0,.3-.01.43-.13.07-.07.1-.17.1-.34v-.18Z"/>
      <path class="cls-2" d="M83.25,25.41c-.43,0-.62-.29-.62-.63v-2.56h.46v2.53c0,.17.06.26.25.26h.2v.39h-.28Z"/>
    </g>
    <g>
      <path class="cls-2" d="M38.88,5.21c3.97,0,5.71,1.88,5.71,4.59v6.01c0,.53.23.91.71.91h1.03l.11,1.67c-.64.23-1.14.33-1.74.33-1.32,0-1.99-.61-2.22-1.65-.69.85-2.81,1.83-4.88,1.83-2.65,0-5.34-.91-5.34-4.26,0-2.46,1.96-3.78,4.86-4.24,1.62-.25,2.87-.3,4.68-.3v-.86c0-1.12-.94-1.93-3.33-1.93-1.37,0-2.88.33-4.57,1.17l-.64-1.9c1.71-.96,3.52-1.37,5.62-1.37ZM37.44,12.23c-1.64.28-2.33.99-2.33,2.39,0,1.22.84,2.16,2.79,2.16,1.62,0,3.08-.5,3.9-1.09v-3.78c-1.76,0-3.06.1-4.36.33Z"/>
      <path class="cls-2" d="M52.1,1.68v14.92l1.62.25-.11,1.55h-5.8l-.11-1.55,1.62-.25V3.61l-1.58-.23-.14-1.55,4.29-.3.21.15Z"/>
      <path class="cls-2" d="M65.71,11.6l-.43-3.65c-.98-.48-1.92-.71-3.11-.71-2.83,0-4.45,1.98-4.45,4.82s1.39,4.82,4.22,4.82c2.15,0,3.22-.43,4.68-1.57l.98,1.83c-1.64,1.29-3.52,1.78-5.66,1.78-4.41,0-7.01-3.07-7.01-6.85s2.72-6.85,7.24-6.85c2.31,0,4.16.51,5.53,1.29l-.32,5.1h-1.67Z"/>
      <path class="cls-2" d="M84.18,12.06c0,3.81-2.72,6.85-7.24,6.85s-7.24-3.05-7.24-6.85,2.72-6.85,7.24-6.85,7.24,3.07,7.24,6.85ZM72.49,12.06c0,2.94,1.48,4.82,4.45,4.82s4.43-1.88,4.43-4.82-1.48-4.82-4.43-4.82-4.45,1.9-4.45,4.82Z"/>
      <g>
        <path class="cls-2" d="M26.64.72c-1.62.95-1.94,2.68-1.94,4.59v11.29l-1.67.23.11,1.57h5.85l.11-1.57-1.67-.23V7.72l4.02.08v-2.08h-4.02v-1.32c.02-1.47.8-2.31,2.15-2.31,1.62,0,2.35,1,2.35,1l1.13-1.56c-.86-.72-3.5-2.52-6.42-.81Z"/>
        <rect class="cls-2" x="23.03" y="5.71" width="8.43" height="2"/>
      </g>
    </g>
  </g>
</svg>